<svg version="1.1" id="Layer_1" xmlns="http://www.w3.org/2000/svg" xmlns:xlink="http://www.w3.org/1999/xlink" x="0px" y="0px"
	 width="100%" viewBox="0 0 161 129" enable-background="new 0 0 161 129" xml:space="preserve">
<path fill="#FEFEFE" opacity="1.000000" stroke="none" 
	d="
M81.000000,130.000000 
	C54.022861,130.000000 27.545725,130.000000 1.034293,130.000000 
	C1.034293,87.059982 1.034293,44.119930 1.034293,1.089938 
	C54.560276,1.089938 108.120750,1.089938 161.840607,1.089938 
	C161.840607,43.999546 161.840607,86.999702 161.840607,130.000000 
	C135.120331,130.000000 108.310165,130.000000 81.000000,130.000000 
M57.209831,109.053528 
	C61.935165,109.032944 63.404289,105.853294 64.564568,101.362297 
	C66.696770,92.840332 68.828972,84.318367 70.961174,75.796402 
	C71.460190,75.832397 71.959206,75.868393 72.458221,75.904388 
	C74.581963,84.966293 76.705704,94.028191 78.845459,103.872238 
	C79.087669,107.134598 80.666832,109.187401 84.106300,108.993240 
	C87.841286,108.782410 88.907555,106.094536 89.597435,102.302605 
	C91.725739,93.845627 93.854042,85.388649 95.982353,76.931671 
	C96.484261,76.975250 96.986168,77.018829 97.488083,77.062408 
	C99.621429,85.092644 101.754784,93.122879 103.927162,101.919800 
	C104.939827,108.197769 105.896797,109.030701 112.908539,109.054161 
	C122.383720,109.063141 131.859634,109.005600 141.333771,109.109886 
	C145.894714,109.160088 148.101837,107.161079 148.082245,102.561188 
	C148.036911,91.922539 148.025330,81.283333 148.086517,70.644844 
	C148.111542,66.294296 145.957489,64.105728 141.758377,64.074402 
	C131.452652,63.997524 121.139755,63.877136 110.844910,64.224022 
	C108.845543,64.291389 106.914894,66.397682 104.609291,67.637642 
	C104.609291,67.637642 104.258301,67.637917 103.937401,67.022163 
	C98.554146,61.319607 88.929459,64.153160 86.902290,72.493629 
	C86.163841,75.531868 85.074371,78.484795 83.835709,80.700851 
	C83.256401,78.476021 82.640671,76.259933 82.104012,74.024864 
	C79.627060,63.708729 72.123489,61.136040 63.312389,67.309860 
	C61.263077,66.304321 58.985268,64.184448 57.216511,64.547134 
	C54.364403,65.131966 52.309185,67.532623 52.852833,71.188667 
	C53.154617,73.218185 52.906982,75.329399 52.906982,77.931717 
	C45.314766,78.311546 38.511845,78.651894 31.057232,79.024849 
	C31.057232,75.737846 30.980873,73.292770 31.075062,70.854286 
	C31.217661,67.162399 29.670147,64.439491 25.961018,64.210655 
	C22.369705,63.989075 20.175087,66.176292 20.028811,70.498703 
	C20.028811,70.498703 20.137478,70.969795 19.997868,71.901733 
	C19.988945,81.687248 19.766510,91.480675 20.128365,101.252464 
	C20.213757,103.558350 22.266050,105.791397 24.062145,108.737549 
	C34.866245,108.797768 45.670345,108.857994 57.209831,109.053528 
M77.903687,38.269951 
	C71.707314,35.469498 66.016617,36.845310 63.102638,41.848328 
	C60.416965,46.459366 61.885704,53.266964 66.173531,56.081863 
	C71.299370,59.446911 77.067406,58.502327 80.810196,53.684937 
	C84.447693,49.003067 83.591194,43.321819 77.903687,38.269951 
M89.478203,39.942596 
	C85.301292,44.940910 84.995338,49.137501 88.469398,53.779739 
	C91.147675,57.358616 96.624176,58.909367 100.471642,57.178360 
	C105.563843,54.887329 107.514397,50.826775 106.477020,44.410400 
	C105.933083,44.284004 105.302643,44.180012 104.700974,43.986553 
	C104.004387,43.762589 102.962936,43.653225 102.706596,43.162319 
	C99.110794,36.276047 96.185616,35.379784 89.478203,39.942596 
z"/>
<path fill="#55B8B5" opacity="1.000000" stroke="none" 
	d="
M104.952545,67.563492 
	C106.914894,66.397682 108.845543,64.291389 110.844910,64.224022 
	C121.139755,63.877136 131.452652,63.997524 141.758377,64.074402 
	C145.957489,64.105728 148.111542,66.294296 148.086517,70.644844 
	C148.025330,81.283333 148.036911,91.922539 148.082245,102.561188 
	C148.101837,107.161079 145.894714,109.160088 141.333771,109.109886 
	C131.859634,109.005600 122.383720,109.063141 112.659462,108.684319 
	C112.977066,106.665573 114.326553,104.831474 113.987167,103.396927 
	C111.151489,91.410843 108.005173,79.498253 104.952545,67.563492 
M137.816437,91.434586 
	C137.816437,85.515656 137.816437,79.596733 137.816437,73.452332 
	C129.920532,73.452332 122.705818,73.452332 115.316345,73.452332 
	C115.316345,82.406036 115.316345,91.064178 115.316345,99.641846 
	C122.949051,99.641846 130.165787,99.641846 137.814346,99.641846 
	C137.814346,96.995171 137.814346,94.701576 137.816437,91.434586 
z"/>
<path fill="#E64848" opacity="1.000000" stroke="none" 
	d="
M23.413525,108.057953 
	C22.266050,105.791397 20.213757,103.558350 20.128365,101.252464 
	C19.766510,91.480675 19.988945,81.687248 20.216816,71.350632 
	C20.490223,70.699806 20.615770,70.550568 20.586790,70.508949 
	C20.463186,70.331467 20.293901,70.185791 20.141283,70.028511 
	C20.175087,66.176292 22.369705,63.989075 25.961018,64.210655 
	C29.670147,64.439491 31.217661,67.162399 31.075062,70.854286 
	C30.980873,73.292770 31.057232,75.737846 31.057232,79.024849 
	C38.511845,78.651894 45.314766,78.311546 52.906982,77.931717 
	C52.906982,75.329399 53.154617,73.218185 52.852833,71.188667 
	C52.309185,67.532623 54.364403,65.131966 57.216511,64.547134 
	C58.985268,64.184448 61.263077,66.304321 63.538273,67.756424 
	C63.764156,68.202995 63.742298,68.646873 63.528687,68.791855 
	C63.194767,69.251106 63.074463,69.565384 62.697395,70.150520 
	C59.714447,80.242310 56.801617,90.017807 54.392632,99.915939 
	C53.786453,102.406624 54.794342,105.290146 54.587280,107.995392 
	C43.880566,108.017754 33.647045,108.037857 23.413525,108.057953 
M52.785263,98.983833 
	C52.785263,95.079300 52.785263,91.174767 52.785263,87.349106 
	C45.226658,87.349106 38.231121,87.349106 31.318035,87.349106 
	C31.318035,92.022697 31.318035,96.267181 31.318035,101.472198 
	C38.565025,100.902161 45.486389,100.357735 52.785263,98.983833 
z"/>
<path fill="#3573C7" opacity="1.000000" stroke="none" 
	d="
M63.742298,68.646873 
	C63.742298,68.646873 63.764156,68.202995 63.773952,67.980698 
	C72.123489,61.136040 79.627060,63.708729 82.104012,74.024864 
	C82.640671,76.259933 83.256401,78.476021 83.963898,81.401642 
	C84.090858,82.746475 84.089615,83.390511 83.942368,84.383102 
	C82.140724,90.851128 80.485085,96.970612 78.829437,103.090096 
	C76.705704,94.028191 74.581963,84.966293 72.458221,75.904388 
	C71.959206,75.868393 71.460190,75.832397 70.961174,75.796402 
	C68.828972,84.318367 66.696770,92.840332 64.248009,101.324387 
	C63.901306,100.834557 63.871170,100.382637 63.910744,99.471886 
	C63.901070,88.890999 63.821686,78.768936 63.742298,68.646873 
z"/>
<path fill="#F1B157" opacity="1.000000" stroke="none" 
	d="
M84.088371,84.034546 
	C84.089615,83.390511 84.090858,82.746475 84.118576,81.789536 
	C85.074371,78.484795 86.163841,75.531868 86.902290,72.493629 
	C88.929459,64.153160 98.554146,61.319607 104.053955,67.825653 
	C104.076378,79.470459 103.982254,90.311790 103.888130,101.153114 
	C101.754784,93.122879 99.621429,85.092644 97.488083,77.062408 
	C96.986168,77.018829 96.484261,76.975250 95.982353,76.931671 
	C93.854042,85.388649 91.725739,93.845627 89.235123,102.236206 
	C87.278000,96.124725 85.683189,90.079636 84.088371,84.034546 
z"/>
<path fill="#ACC3E9" opacity="1.000000" stroke="none" 
	d="
M78.228607,38.493031 
	C83.591194,43.321819 84.447693,49.003067 80.810196,53.684937 
	C77.067406,58.502327 71.299370,59.446911 66.173531,56.081863 
	C61.885704,53.266964 60.416965,46.459366 63.102638,41.848328 
	C66.016617,36.845310 71.707314,35.469498 78.228607,38.493031 
z"/>
<path fill="#B0C6EA" opacity="1.000000" stroke="none" 
	d="
M89.754654,39.680443 
	C96.185616,35.379784 99.110794,36.276047 102.706596,43.162319 
	C102.962936,43.653225 104.004387,43.762589 104.700974,43.986553 
	C105.302643,44.180012 105.933083,44.284004 106.477020,44.410400 
	C107.514397,50.826775 105.563843,54.887329 100.471642,57.178360 
	C96.624176,58.909367 91.147675,57.358616 88.469398,53.779739 
	C84.995338,49.137501 85.301292,44.940910 89.754654,39.680443 
M98.046249,42.022964 
	C94.573540,38.159428 94.256973,44.768250 92.000015,43.623917 
	C93.066467,46.673145 93.974709,49.565048 95.127464,52.355953 
	C95.411118,53.042675 96.543022,53.855270 97.191750,53.782227 
	C97.852219,53.707859 98.894173,52.623840 98.909042,51.962585 
	C98.979385,48.833241 98.755379,45.697285 98.046249,42.022964 
z"/>
<path fill="#4F814B" opacity="1.000000" stroke="none" 
	d="
M103.907646,101.536453 
	C103.982254,90.311790 104.076378,79.470459 104.214401,68.133530 
	C104.258301,67.637917 104.609291,67.637642 104.780914,67.600571 
	C108.005173,79.498253 111.151489,91.410843 113.987167,103.396927 
	C114.326553,104.831474 112.977066,106.665573 112.193100,108.619812 
	C105.896797,109.030701 104.939827,108.197769 103.907646,101.536453 
z"/>
<path fill="#161430" opacity="1.000000" stroke="none" 
	d="
M63.841034,99.930710 
	C63.871170,100.382637 63.901306,100.834557 64.022766,101.611725 
	C63.404289,105.853294 61.935165,109.032944 56.665024,108.751694 
	C55.766964,108.297615 55.413719,108.145378 55.060474,107.993134 
	C54.794342,105.290146 53.786453,102.406624 54.392632,99.915939 
	C56.801617,90.017807 59.714447,80.242310 62.712841,70.627983 
	C62.989529,75.640945 62.886215,80.450500 63.028522,85.252769 
	C63.173618,90.149147 63.560184,95.038361 63.841034,99.930710 
z"/>
<path fill="#2E4D35" opacity="1.000000" stroke="none" 
	d="
M83.942368,84.383102 
	C85.683189,90.079636 87.278000,96.124725 89.014053,102.517319 
	C88.907555,106.094536 87.841286,108.782410 84.106300,108.993240 
	C80.666832,109.187401 79.087669,107.134598 78.837448,103.481171 
	C80.485085,96.970612 82.140724,90.851128 83.942368,84.383102 
z"/>
<path fill="#E33224" opacity="1.000000" stroke="none" 
	d="
M54.587280,107.995399 
	C55.413719,108.145378 55.766964,108.297615 56.297329,108.684036 
	C45.670345,108.857994 34.866245,108.797768 23.737835,108.397751 
	C33.647045,108.037857 43.880566,108.017754 54.587280,107.995399 
z"/>
<path fill="#E53B3B" opacity="1.000000" stroke="none" 
	d="
M20.085047,70.263611 
	C20.293901,70.185791 20.463186,70.331467 20.586790,70.508949 
	C20.615770,70.550568 20.490223,70.699806 20.286621,70.884659 
	C20.137478,70.969795 20.028811,70.498703 20.085047,70.263611 
z"/>
<path fill="#FAFDFC" opacity="1.000000" stroke="none" 
	d="
M137.815399,91.921280 
	C137.814346,94.701576 137.814346,96.995171 137.814346,99.641846 
	C130.165787,99.641846 122.949051,99.641846 115.316345,99.641846 
	C115.316345,91.064178 115.316345,82.406036 115.316345,73.452332 
	C122.705818,73.452332 129.920532,73.452332 137.816437,73.452332 
	C137.816437,79.596733 137.816437,85.515656 137.815399,91.921280 
z"/>
<path fill="#FDF9F9" opacity="1.000000" stroke="none" 
	d="
M52.596508,99.398575 
	C45.486389,100.357735 38.565025,100.902161 31.318035,101.472198 
	C31.318035,96.267181 31.318035,92.022697 31.318035,87.349106 
	C38.231121,87.349106 45.226658,87.349106 52.785263,87.349106 
	C52.785263,91.174767 52.785263,95.079300 52.596508,99.398575 
z"/>
<path fill="#1B1115" opacity="1.000000" stroke="none" 
	d="
M63.910744,99.471886 
	C63.560184,95.038361 63.173618,90.149147 63.028522,85.252769 
	C62.886215,80.450500 62.989529,75.640945 62.969604,70.357124 
	C63.074463,69.565384 63.194767,69.251106 63.528687,68.791855 
	C63.821686,78.768936 63.901070,88.890999 63.910744,99.471886 
z"/>
<path fill="#F4F9FC" opacity="1.000000" stroke="none" 
	d="
M98.341263,42.293324 
	C98.755379,45.697285 98.979385,48.833241 98.909042,51.962585 
	C98.894173,52.623840 97.852219,53.707859 97.191750,53.782227 
	C96.543022,53.855270 95.411118,53.042675 95.127464,52.355953 
	C93.974709,49.565048 93.066467,46.673145 92.000015,43.623917 
	C94.256973,44.768250 94.573540,38.159428 98.341263,42.293324 
z"/>
</svg>