<svg version="1.1" id="Layer_1" xmlns="http://www.w3.org/2000/svg" xmlns:xlink="http://www.w3.org/1999/xlink" x="0px" y="0px"
	 width="100%" viewBox="0 0 445 425" enable-background="new 0 0 445 425" xml:space="preserve">
<path fill="#FEFEFE" opacity="1.000000" stroke="none" 
	d="
M296.000000,426.000000 
	C197.361526,426.000000 99.223045,426.000000 1.042287,426.000000 
	C1.042287,284.402222 1.042287,142.804428 1.042287,1.103311 
	C149.221802,1.103311 297.443695,1.103311 445.832794,1.103311 
	C445.832794,142.666504 445.832794,284.333252 445.832794,426.000000 
	C396.137726,426.000000 346.318878,426.000000 296.000000,426.000000 
M442.922974,346.429016 
	C443.153564,344.113190 443.583130,341.797546 443.585236,339.481506 
	C443.623993,296.992981 444.011963,254.497726 443.302429,212.020981 
	C443.143402,202.501328 440.560516,192.381775 436.590393,183.680511 
	C421.862335,151.401642 396.065216,135.046509 360.567017,134.173462 
	C353.623291,134.002670 346.671753,134.148880 339.277863,134.148880 
	C339.277863,132.006439 339.278137,130.374924 339.277802,128.743408 
	C339.274658,113.247231 339.433807,97.748398 339.180389,82.256310 
	C339.091248,76.807640 338.661926,71.193504 337.244049,65.965134 
	C327.481628,29.966619 295.375366,9.725208 258.807495,16.201571 
	C232.826431,20.802948 210.163132,43.509785 206.400177,69.801666 
	C204.947556,79.951248 205.287659,90.369377 205.000824,100.670441 
	C204.720749,110.728119 201.853699,119.885551 196.573853,128.445160 
	C184.880508,147.402222 165.208008,151.461731 145.826416,156.326675 
	C142.535828,141.640167 134.885391,134.223907 122.690880,134.183655 
	C92.865150,134.085220 63.038589,134.080078 33.212940,134.191483 
	C20.878750,134.237534 11.032038,144.170029 11.024964,156.481384 
	C10.979203,236.128662 10.976942,315.776001 11.027374,395.423248 
	C11.035009,407.481506 20.808208,417.550201 32.806675,417.614197 
	C62.798492,417.774170 92.791992,417.747559 122.784203,417.634064 
	C133.087555,417.595093 140.763931,411.651703 144.099380,401.855652 
	C144.496719,400.688629 145.192139,399.623047 145.916367,398.177124 
	C170.757507,414.079346 197.860962,418.529846 226.414124,417.800323 
	C249.227020,417.217438 272.066681,417.683685 294.894470,417.682312 
	C317.055756,417.680969 339.217010,417.664368 361.378296,417.678131 
	C381.484741,417.690613 399.554596,411.132477 414.684357,398.387665 
	C430.343201,385.197113 439.914764,367.900726 442.922974,346.429016 
z"/>
<path fill="#030303" opacity="1.000000" stroke="none" 
	d="
M442.824463,346.853180 
	C439.914764,367.900726 430.343201,385.197113 414.684357,398.387665 
	C399.554596,411.132477 381.484741,417.690613 361.378296,417.678131 
	C339.217010,417.664368 317.055756,417.680969 294.894470,417.682312 
	C272.066681,417.683685 249.227020,417.217438 226.414124,417.800323 
	C197.860962,418.529846 170.757507,414.079346 145.916367,398.177124 
	C145.192139,399.623047 144.496719,400.688629 144.099380,401.855652 
	C140.763931,411.651703 133.087555,417.595093 122.784203,417.634064 
	C92.791992,417.747559 62.798492,417.774170 32.806675,417.614197 
	C20.808208,417.550201 11.035009,407.481506 11.027374,395.423248 
	C10.976942,315.776001 10.979203,236.128662 11.024964,156.481384 
	C11.032038,144.170029 20.878750,134.237534 33.212940,134.191483 
	C63.038589,134.080078 92.865150,134.085220 122.690880,134.183655 
	C134.885391,134.223907 142.535828,141.640167 145.826416,156.326675 
	C165.208008,151.461731 184.880508,147.402222 196.573853,128.445160 
	C201.853699,119.885551 204.720749,110.728119 205.000824,100.670441 
	C205.287659,90.369377 204.947556,79.951248 206.400177,69.801666 
	C210.163132,43.509785 232.826431,20.802948 258.807495,16.201571 
	C295.375366,9.725208 327.481628,29.966619 337.244049,65.965134 
	C338.661926,71.193504 339.091248,76.807640 339.180389,82.256310 
	C339.433807,97.748398 339.274658,113.247231 339.277802,128.743408 
	C339.278137,130.374924 339.277863,132.006439 339.277863,134.148880 
	C346.671753,134.148880 353.623291,134.002670 360.567017,134.173462 
	C396.065216,135.046509 421.862335,151.401642 436.590393,183.680511 
	C440.560516,192.381775 443.143402,202.501328 443.302429,212.020981 
	C444.011963,254.497726 443.623993,296.992981 443.585236,339.481506 
	C443.583130,341.797546 443.153564,344.113190 442.824463,346.853180 
M283.483795,62.798927 
	C267.356750,54.284290 249.909714,64.621063 249.766251,82.792038 
	C249.716263,89.123863 249.818329,95.457634 249.711197,101.788139 
	C249.040894,141.399536 224.055588,177.186111 186.855545,190.808563 
	C173.357452,195.751480 159.345505,199.291245 145.520767,203.485565 
	C145.441086,204.224274 145.308197,204.881622 145.308136,205.538986 
	C145.303833,248.364304 145.281021,291.189697 145.410202,334.014648 
	C145.416077,335.964539 146.392120,338.222595 147.605286,339.810822 
	C164.000443,361.274994 185.779404,372.636658 212.778549,372.800262 
	C262.101013,373.099152 311.426605,372.921082 360.750854,372.875702 
	C382.629333,372.855591 398.915863,356.544983 398.944916,334.641785 
	C398.996887,295.482391 399.000427,256.322784 398.945068,217.163391 
	C398.914032,195.205872 382.679047,179.000824 360.761841,178.929337 
	C346.597931,178.883133 332.433624,178.949799 318.269684,178.905975 
	C304.047943,178.861969 294.569427,169.362869 294.534637,155.039871 
	C294.476746,131.211075 294.455688,107.381897 294.527985,83.553223 
	C294.554230,74.900978 291.320251,68.066483 283.483795,62.798927 
M61.607826,372.899048 
	C74.398254,372.899048 87.188683,372.899048 100.262848,372.899048 
	C100.262848,308.102997 100.262848,243.713669 100.262848,179.293640 
	C85.334084,179.293640 70.636917,179.293640 56.004997,179.293640 
	C56.004997,243.939484 56.004997,308.189819 56.004997,372.898224 
	C57.710945,372.898224 59.171936,372.898224 61.607826,372.899048 
z"/>
<path fill="#FDFDFD" opacity="1.000000" stroke="none" 
	d="
M283.808624,62.984268 
	C291.320251,68.066483 294.554230,74.900978 294.527985,83.553223 
	C294.455688,107.381897 294.476746,131.211075 294.534637,155.039871 
	C294.569427,169.362869 304.047943,178.861969 318.269684,178.905975 
	C332.433624,178.949799 346.597931,178.883133 360.761841,178.929337 
	C382.679047,179.000824 398.914032,195.205872 398.945068,217.163391 
	C399.000427,256.322784 398.996887,295.482391 398.944916,334.641785 
	C398.915863,356.544983 382.629333,372.855591 360.750854,372.875702 
	C311.426605,372.921082 262.101013,373.099152 212.778549,372.800262 
	C185.779404,372.636658 164.000443,361.274994 147.605286,339.810822 
	C146.392120,338.222595 145.416077,335.964539 145.410202,334.014648 
	C145.281021,291.189697 145.303833,248.364304 145.308136,205.538986 
	C145.308197,204.881622 145.441086,204.224274 145.520767,203.485565 
	C159.345505,199.291245 173.357452,195.751480 186.855545,190.808563 
	C224.055588,177.186111 249.040894,141.399536 249.711197,101.788139 
	C249.818329,95.457634 249.716263,89.123863 249.766251,82.792038 
	C249.909714,64.621063 267.356750,54.284290 283.808624,62.984268 
z"/>
<path fill="#FCFCFC" opacity="1.000000" stroke="none" 
	d="
M61.120377,372.898621 
	C59.171936,372.898224 57.710945,372.898224 56.004997,372.898224 
	C56.004997,308.189819 56.004997,243.939484 56.004997,179.293640 
	C70.636917,179.293640 85.334084,179.293640 100.262848,179.293640 
	C100.262848,243.713669 100.262848,308.102997 100.262848,372.899048 
	C87.188683,372.899048 74.398254,372.899048 61.120377,372.898621 
z"/>
</svg>