<svg version="1.1" id="Layer_1" xmlns="http://www.w3.org/2000/svg" xmlns:xlink="http://www.w3.org/1999/xlink" x="0px" y="0px"
	 width="100%" viewBox="0 0 437 418" enable-background="new 0 0 437 418" xml:space="preserve">
<path fill="#FDFDFD" opacity="1.000000" stroke="none" 
	d="
M1.000000,148.000000 
	C1.000000,98.680939 1.000000,49.861870 1.000000,1.021402 
	C146.609833,1.021402 292.219666,1.021402 437.914734,1.021402 
	C437.914734,140.235748 437.914734,279.471558 437.914734,418.853699 
	C292.333435,418.853699 146.666733,418.853699 1.000000,418.853699 
	C1.000000,328.780304 1.000000,238.640152 1.000000,148.000000 
M435.002289,170.500000 
	C435.000427,124.347092 435.025330,78.194153 434.978760,32.041294 
	C434.966400,19.809536 425.489777,9.478204 413.657562,9.402338 
	C383.167725,9.206844 352.673981,9.174140 322.185608,9.470810 
	C312.899384,9.561170 306.290924,14.767273 302.429230,23.233402 
	C301.691223,24.851318 301.281128,26.618801 300.642242,28.551788 
	C299.658020,28.159494 299.026367,28.001095 298.491425,27.681053 
	C276.328766,14.421415 252.296844,9.002418 226.542297,9.211776 
	C180.225143,9.588287 133.902039,9.188393 87.583199,9.440686 
	C79.674301,9.483765 71.615913,10.457709 63.897537,12.201120 
	C30.157026,19.822353 2.883848,52.715267 2.491812,87.010582 
	C2.008098,129.325806 2.178074,171.651962 2.515533,213.969788 
	C2.572838,221.156021 4.017711,228.617310 6.311118,235.451675 
	C18.361399,271.361664 48.548374,292.768005 86.396622,292.851257 
	C93.015358,292.865814 99.634163,292.853333 106.730667,292.853333 
	C106.730667,294.972809 106.730705,296.598450 106.730659,298.224091 
	C106.730217,313.719696 106.551498,329.218445 106.823578,344.709259 
	C106.922081,350.317047 107.532166,356.046356 108.877052,361.480591 
	C117.499763,396.321960 152.654831,417.537292 186.714325,411.017426 
	C212.387329,406.102966 236.043671,383.454132 239.557419,357.700745 
	C240.966858,347.370667 240.698349,336.800476 241.007004,326.334045 
	C241.428635,312.035797 246.633713,299.901398 256.603699,289.630249 
	C268.585449,277.286560 284.828888,275.188324 300.135590,270.586487 
	C303.997986,287.225037 311.114594,292.853455 327.829926,292.851074 
	C354.988892,292.847229 382.160828,292.349945 409.301605,293.052917 
	C423.847168,293.429657 435.604980,282.697052 435.228180,266.967529 
	C434.466217,235.161453 435.001801,203.324326 435.002289,170.500000 
z"/>
<path fill="#030303" opacity="1.000000" stroke="none" 
	d="
M435.002289,171.000000 
	C435.001801,203.324326 434.466217,235.161453 435.228180,266.967529 
	C435.604980,282.697052 423.847168,293.429657 409.301605,293.052917 
	C382.160828,292.349945 354.988892,292.847229 327.829926,292.851074 
	C311.114594,292.853455 303.997986,287.225037 300.135590,270.586487 
	C284.828888,275.188324 268.585449,277.286560 256.603699,289.630249 
	C246.633713,299.901398 241.428635,312.035797 241.007004,326.334045 
	C240.698349,336.800476 240.966858,347.370667 239.557419,357.700745 
	C236.043671,383.454132 212.387329,406.102966 186.714325,411.017426 
	C152.654831,417.537292 117.499763,396.321960 108.877052,361.480591 
	C107.532166,356.046356 106.922081,350.317047 106.823578,344.709259 
	C106.551498,329.218445 106.730217,313.719696 106.730659,298.224091 
	C106.730705,296.598450 106.730667,294.972809 106.730667,292.853333 
	C99.634163,292.853333 93.015358,292.865814 86.396622,292.851257 
	C48.548374,292.768005 18.361399,271.361664 6.311118,235.451675 
	C4.017711,228.617310 2.572838,221.156021 2.515533,213.969788 
	C2.178074,171.651962 2.008098,129.325806 2.491812,87.010582 
	C2.883848,52.715267 30.157026,19.822353 63.897537,12.201120 
	C71.615913,10.457709 79.674301,9.483765 87.583199,9.440686 
	C133.902039,9.188393 180.225143,9.588287 226.542297,9.211776 
	C252.296844,9.002418 276.328766,14.421415 298.491425,27.681053 
	C299.026367,28.001095 299.658020,28.159494 300.642242,28.551788 
	C301.281128,26.618801 301.691223,24.851318 302.429230,23.233402 
	C306.290924,14.767273 312.899384,9.561170 322.185608,9.470810 
	C352.673981,9.174140 383.167725,9.206844 413.657562,9.402338 
	C425.489777,9.478204 434.966400,19.809536 434.978760,32.041294 
	C435.025330,78.194153 435.000427,124.347092 435.002289,171.000000 
M289.586578,76.913033 
	C272.837585,61.320564 253.039719,53.957531 230.142578,54.048664 
	C181.984863,54.240341 133.825836,54.086845 85.667389,54.117897 
	C63.338379,54.132298 47.088409,70.227295 47.056320,92.421417 
	C46.999702,131.581345 46.988438,170.741486 47.053253,209.901382 
	C47.089512,231.807495 63.410759,248.019958 85.309441,248.075943 
	C98.973694,248.110870 112.638107,248.074692 126.302437,248.086929 
	C142.424149,248.101364 151.457550,257.023590 151.478516,273.029327 
	C151.509293,296.525299 151.373932,320.022400 151.599350,343.516266 
	C151.636353,347.374115 152.478867,351.542023 154.128265,355.005035 
	C158.486176,364.154724 169.200714,369.217438 178.191833,367.066254 
	C188.957321,364.490509 196.057190,355.766937 196.228500,344.855652 
	C196.439850,331.394775 195.484070,317.891968 198.959671,304.612091 
	C208.034714,269.937439 229.383743,246.503128 263.164551,234.736115 
	C275.364197,230.486572 287.960266,227.375061 300.714813,223.645004 
	C300.714813,221.748886 300.714783,219.932388 300.714783,218.115891 
	C300.714905,180.122345 300.282715,142.120819 300.983551,104.140213 
	C301.188843,93.015945 298.435211,84.408760 289.586578,76.913033 
M390.237183,181.500122 
	C390.237183,139.115265 390.237183,96.730392 390.237183,54.240860 
	C374.982880,54.240860 360.532684,54.240860 345.848541,54.240860 
	C345.848541,118.884064 345.848541,183.366516 345.848541,247.764954 
	C360.833344,247.764954 375.402313,247.764954 390.237183,247.764954 
	C390.237183,225.776825 390.237183,204.138489 390.237183,181.500122 
z"/>
<path fill="#FDFDFD" opacity="1.000000" stroke="none" 
	d="
M289.836884,77.162628 
	C298.435211,84.408760 301.188843,93.015945 300.983551,104.140213 
	C300.282715,142.120819 300.714905,180.122345 300.714783,218.115891 
	C300.714783,219.932388 300.714813,221.748886 300.714813,223.645004 
	C287.960266,227.375061 275.364197,230.486572 263.164551,234.736115 
	C229.383743,246.503128 208.034714,269.937439 198.959671,304.612091 
	C195.484070,317.891968 196.439850,331.394775 196.228500,344.855652 
	C196.057190,355.766937 188.957321,364.490509 178.191833,367.066254 
	C169.200714,369.217438 158.486176,364.154724 154.128265,355.005035 
	C152.478867,351.542023 151.636353,347.374115 151.599350,343.516266 
	C151.373932,320.022400 151.509293,296.525299 151.478516,273.029327 
	C151.457550,257.023590 142.424149,248.101364 126.302437,248.086929 
	C112.638107,248.074692 98.973694,248.110870 85.309441,248.075943 
	C63.410759,248.019958 47.089512,231.807495 47.053253,209.901382 
	C46.988438,170.741486 46.999702,131.581345 47.056320,92.421417 
	C47.088409,70.227295 63.338379,54.132298 85.667389,54.117897 
	C133.825836,54.086845 181.984863,54.240341 230.142578,54.048664 
	C253.039719,53.957531 272.837585,61.320564 289.836884,77.162628 
z"/>
<path fill="#FCFCFC" opacity="1.000000" stroke="none" 
	d="
M390.237183,182.000122 
	C390.237183,204.138489 390.237183,225.776825 390.237183,247.764954 
	C375.402313,247.764954 360.833344,247.764954 345.848541,247.764954 
	C345.848541,183.366516 345.848541,118.884064 345.848541,54.240860 
	C360.532684,54.240860 374.982880,54.240860 390.237183,54.240860 
	C390.237183,96.730392 390.237183,139.115265 390.237183,182.000122 
z"/>
</svg>